<svg xmlns="http://www.w3.org/2000/svg" viewBox="0 0 400 300" width="406" height="306" class="illustration styles_illustrationTablet__1DWOa"><g id="_557_transaction_outline" data-name="#557_transaction_outline"><rect x="150.1" y="63.62" width="99.8" height="172.76" rx="9.07" fill="#fff"></rect><path d="M240.83,237.38H159.17a10.08,10.08,0,0,1-10.07-10.07V72.69a10.08,10.08,0,0,1,10.07-10.07h81.66A10.08,10.08,0,0,1,250.9,72.69V227.31A10.08,10.08,0,0,1,240.83,237.38ZM159.17,64.62a8.08,8.08,0,0,0-8.07,8.07V227.31a8.08,8.08,0,0,0,8.07,8.07h81.66a8.08,8.08,0,0,0,8.07-8.07V72.69a8.08,8.08,0,0,0-8.07-8.07Z" fill="#093f68"></path><path d="M199.43,230.67a7.11,7.11,0,1,1,7.11-7.1A7.11,7.11,0,0,1,199.43,230.67Zm0-12.21a5.11,5.11,0,1,0,5.11,5.11A5.11,5.11,0,0,0,199.43,218.46Z" fill="#dfeaef"></path><rect x="150.1" y="76.82" width="99.8" height="134.54" fill="#fc6868"></rect><path d="M249.9,212.36H150.1a1,1,0,0,1-1-1V76.82a1,1,0,0,1,1-1h99.8a1,1,0,0,1,1,1V211.36A1,1,0,0,1,249.9,212.36Zm-98.8-2h97.8V77.82H151.1Z" fill="#093f68"></path><path d="M195,71.44h-2a1,1,0,0,1,0-2h2a1,1,0,1,1,0,2Z" fill="#dfeaef"></path><path d="M207,71.44h-9.15a1,1,0,1,1,0-2H207a1,1,0,0,1,0,2Z" fill="#dfeaef"></path><polygon points="199.85 101.58 153.23 101.58 153.23 90.36 128.43 110.96 153.23 131.56 153.23 120.33 199.85 120.33 199.85 101.58" fill="#fff"></polygon><path d="M153.23,132.56a1,1,0,0,1-.64-.23l-24.8-20.6a1,1,0,0,1,0-1.54l24.8-20.6a1,1,0,0,1,1.64.77v10.22h45.62a1,1,0,0,1,1,1v18.75a1,1,0,0,1-1,1H154.23v10.23a1,1,0,0,1-.58.9A.9.9,0,0,1,153.23,132.56ZM130,111l22.24,18.47v-9.1a1,1,0,0,1,1-1h45.62V102.58H153.23a1,1,0,0,1-1-1V92.49Z" fill="#093f68"></path><polygon points="200.15 165.36 246.77 165.36 246.77 154.13 271.57 174.73 246.77 195.33 246.77 184.1 200.15 184.1 200.15 165.36" fill="#fff"></polygon><path d="M246.77,196.33a.9.9,0,0,1-.42-.1,1,1,0,0,1-.58-.9V185.11H200.15a1,1,0,0,1-1-1V165.36a1,1,0,0,1,1-1h45.62V154.13a1,1,0,0,1,.58-.9,1,1,0,0,1,1.06.13l24.8,20.6a1,1,0,0,1,0,1.54l-24.8,20.6A1,1,0,0,1,246.77,196.33Zm-45.62-13.22h45.62a1,1,0,0,1,1,1v9.09L270,174.73l-22.24-18.47v9.1a1,1,0,0,1-1,1H201.15Z" fill="#093f68"></path><circle cx="199.85" cy="142.37" r="41.55" fill="#ffbc0e"></circle><path d="M199.85,184.92a42.55,42.55,0,1,1,42.55-42.55A42.6,42.6,0,0,1,199.85,184.92Zm0-83.1a40.55,40.55,0,1,0,40.55,40.55A40.6,40.6,0,0,0,199.85,101.82Z" fill="#093f68"></path><circle cx="199.85" cy="142.37" r="34.45" fill="#ffbc0e"></circle><path d="M199.85,177.82a35.45,35.45,0,1,1,35.45-35.45A35.49,35.49,0,0,1,199.85,177.82Zm0-68.9a33.45,33.45,0,1,0,33.45,33.45A33.49,33.49,0,0,0,199.85,108.92Z" fill="#093f68"></path><path d="M196.14,168V164c-1.48-.4-2.92-.71-4.3-1.18a12.55,12.55,0,0,1-6.61-5,12.29,12.29,0,0,1-1.91-6.88h7.93c.37,2.95,1.8,5.06,4.86,5.88V146.05c-1.59-.46-3.18-.89-4.75-1.39a11,11,0,0,1-4.61-2.63,9.07,9.07,0,0,1-2.56-5,12.71,12.71,0,0,1,.5-6.91,11.49,11.49,0,0,1,7-6.9,33.5,33.5,0,0,1,4-1l.49-.1v-5.38h7.41v.52c0,1.54,0,3.08,0,4.62,0,.38.12.49.49.57a15.71,15.71,0,0,1,6.91,3.23,11.15,11.15,0,0,1,3.93,6.89c.13.73.19,1.48.28,2.26h-8.06a5.64,5.64,0,0,0-3.49-5.11v10l.87.21a28.21,28.21,0,0,1,6.32,2,9.16,9.16,0,0,1,5.48,7.64,12,12,0,0,1-2.09,8.74,12.19,12.19,0,0,1-6,4.44c-1.49.51-3,.85-4.64,1.3V168Zm7.44-20.42V157a6.89,6.89,0,0,0,3.28-1.45c1.72-1.42,2.33-4.93-.19-6.48A29.4,29.4,0,0,0,203.58,147.6ZM196.11,138v-9a27.62,27.62,0,0,0-2.83,1.44c-2.06,1.38-2.39,5.19.24,6.52C194.33,137.36,195.2,137.65,196.11,138Z" fill="#fff"></path><path d="M203.56,169h-7.42a1,1,0,0,1-1-1v-3.29l-.64-.16c-1-.25-2-.51-3-.85a13.51,13.51,0,0,1-7.11-5.35,13.22,13.22,0,0,1-2.08-7.42,1,1,0,0,1,1-1h7.93a1,1,0,0,1,1,.88,5.34,5.34,0,0,0,2.87,4.56v-8.57l-.75-.22c-1.1-.32-2.21-.63-3.3-1a11.94,11.94,0,0,1-5-2.87,10.15,10.15,0,0,1-2.85-5.53,13.63,13.63,0,0,1,.55-7.43,12.44,12.44,0,0,1,7.54-7.48,19.87,19.87,0,0,1,2.9-.79l.95-.22v-4.57a1,1,0,0,1,1-1h7.41a1,1,0,0,1,1,1v1.75c0,1,0,2,0,3a16.35,16.35,0,0,1,7,3.37,12.27,12.27,0,0,1,4.28,7.49c.09.52.15,1.05.21,1.59l.08.72a1,1,0,0,1-.25.78,1,1,0,0,1-.75.34h-8.06a1,1,0,0,1-1-.94,4.56,4.56,0,0,0-1.49-3.35V139l.07,0a29.1,29.1,0,0,1,6.54,2.09,10.15,10.15,0,0,1,6,8.43,13,13,0,0,1-2.27,9.45,13.14,13.14,0,0,1-6.47,4.79c-1.06.37-2.16.65-3.22.93l-.74.19V168A1,1,0,0,1,203.56,169Zm-6.42-2h5.42v-2.93a1,1,0,0,1,.73-1l1.51-.4c1.07-.27,2.08-.54,3.07-.88a11.15,11.15,0,0,0,5.5-4.07,10.88,10.88,0,0,0,1.9-8,8.14,8.14,0,0,0-4.91-6.86,27.55,27.55,0,0,0-6.1-2c-.22,0-.43-.09-.64-.15l-.26-.06a1,1,0,0,1-.76-1v-10a1,1,0,0,1,.46-.85,1,1,0,0,1,1-.06,6.55,6.55,0,0,1,4,5H214c0-.37-.09-.73-.15-1.09a10.14,10.14,0,0,0-3.59-6.29,14.57,14.57,0,0,0-6.48-3,1.46,1.46,0,0,1-1.28-1.57c0-1.12,0-2.24,0-3.36v-.76h-5.41v4.38a1,1,0,0,1-.81,1l-.18,0-.25.06-1.28.29a18.58,18.58,0,0,0-2.62.71,10.51,10.51,0,0,0-6.38,6.32,11.82,11.82,0,0,0-.45,6.37,8.06,8.06,0,0,0,2.29,4.46,9.92,9.92,0,0,0,4.2,2.39c1.08.34,2.16.65,3.25,1l1.48.42a1,1,0,0,1,.72,1v10.77a1,1,0,0,1-.4.79,1,1,0,0,1-.86.17,7.1,7.1,0,0,1-5.45-5.84h-6a10.88,10.88,0,0,0,1.7,5.33,11.44,11.44,0,0,0,6.1,4.56c.91.31,1.84.55,2.83.8l1.41.37a1,1,0,0,1,.74,1Zm6.44-9.07a1.06,1.06,0,0,1-.65-.24,1,1,0,0,1-.35-.76V147.6a1,1,0,0,1,.46-.84,1,1,0,0,1,1-.07l1,.42a15.87,15.87,0,0,1,2.2,1.06,4.47,4.47,0,0,1,2.16,3.6,5.47,5.47,0,0,1-1.85,4.5,7.71,7.71,0,0,1-3.76,1.66Zm1-8.84v6.55a5.52,5.52,0,0,0,1.65-.94,3.5,3.5,0,0,0,1.12-2.82,2.46,2.46,0,0,0-1.2-2A12.73,12.73,0,0,0,204.58,149.11ZM196.11,139a1,1,0,0,1-.38-.07l-.84-.33a17.79,17.79,0,0,1-1.82-.78,4.39,4.39,0,0,1-2.42-3.78,5,5,0,0,1,2.07-4.46,14.35,14.35,0,0,1,2-1.06c.31-.14.62-.28.93-.44a1,1,0,0,1,1,0,1,1,0,0,1,.48.85v9a1,1,0,0,1-.45.83A.92.92,0,0,1,196.11,139Zm-1-8.45a10.34,10.34,0,0,0-1.28.7,3,3,0,0,0-1.18,2.67,2.46,2.46,0,0,0,1.32,2.12c.36.18.74.34,1.14.5Z" fill="#093f68"></path><circle cx="158.53" cy="188.53" r="13.8" fill="#70cc40"></circle><path d="M158.53,203.32a14.8,14.8,0,1,1,14.79-14.79A14.81,14.81,0,0,1,158.53,203.32Zm0-27.59a12.8,12.8,0,1,0,12.79,12.8A12.81,12.81,0,0,0,158.53,175.73Z" fill="#093f68"></path><path d="M155.86,195.42h-.07a1,1,0,0,1-.74-.42l-4.53-6.32a1,1,0,1,1,1.63-1.17l3.83,5.36,9.49-9.79a1,1,0,0,1,1.43,1.39l-10.32,10.65A1,1,0,0,1,155.86,195.42Z" fill="#093f68"></path><path d="M237.32,88.88h-29a1,1,0,0,1,0-2h29a1,1,0,0,1,0,2Z" fill="#093f68"></path><path d="M237.32,97.14H225.68a1,1,0,0,1,0-2h11.64a1,1,0,0,1,0,2Z" fill="#093f68"></path><path d="M237.32,196.33H184.76a1,1,0,0,1,0-2h52.56a1,1,0,0,1,0,2Z" fill="#093f68"></path></g></svg>